<svg width="4123" height="5030" viewBox="0 0 4123 5030" fill="none" xmlns="http://www.w3.org/2000/svg">
<path d="M1854.96 4205.12C2879.42 4205.12 3709.91 3374.63 3709.91 2350.17C3709.91 1325.7 2879.42 495.212 1854.96 495.212C830.492 495.212 0 1325.7 0 2350.17C0 3374.63 830.492 4205.12 1854.96 4205.12Z" fill="#EDEBDC"/>
<path d="M1401.52 2968.49H3050.37V3380.7H1401.52V2968.49Z" fill="#BF7E68" stroke="#4C241D" stroke-width="164.885" stroke-linecap="round" stroke-linejoin="round"/>
<path d="M1380.91 4926.58C1383.8 4711.18 1472.11 4505.74 1626.44 4355.44C1780.76 4205.14 1988.45 4122.28 2203.85 4125.07H2246.06C2461.46 4122.28 2669.16 4205.14 2823.48 4355.44C2977.8 4505.74 3066.11 4711.18 3069 4926.58V4947.1H4039.68L2915.49 3380.7H1540.77L494.655 4947.1H1380.91V4926.58Z" stroke="#4C241D" stroke-width="164.885" stroke-linecap="round" stroke-linejoin="round"/>
<path d="M736.226 4616.19H1399.72" stroke="#4C241D" stroke-width="164.885" stroke-linecap="round" stroke-linejoin="round"/>
<path d="M3058.46 4616.19L3773.82 4617.34" stroke="#4C241D" stroke-width="164.885" stroke-linecap="round" stroke-linejoin="round"/>
<path d="M1465.33 4534.89L1952.64 3415.98" stroke="#4C241D" stroke-width="164.885" stroke-linecap="round" stroke-linejoin="round"/>
<path d="M3116.97 4617.33L2490.99 3391.99" stroke="#4C241D" stroke-width="164.885" stroke-linecap="round" stroke-linejoin="round"/>
<path d="M2859.26 2968.49H1592.61L1872.59 1402.08H2579.28L2859.26 2968.49Z" stroke="#4C241D" stroke-width="164.885" stroke-linecap="round" stroke-linejoin="round"/>
<path d="M1810.92 1897.24H2635.67Z" fill="#E7D1C4"/>
<path d="M1810.92 1897.24H2635.67" stroke="#4C241D" stroke-width="164.885" stroke-linecap="round" stroke-linejoin="round"/>
<path d="M2461.49 1402.08H1990.41L2075.91 330.327H2376L2461.49 1402.08Z" fill="#BF7E68" stroke="#4C241D" stroke-width="164.885" stroke-linecap="round" stroke-linejoin="round"/>
<path d="M2225.95 330.327V83" stroke="#4C241D" stroke-width="164.885" stroke-linecap="round" stroke-linejoin="round"/>
<path d="M1896.18 2638.72H2143.5" stroke="#4C241D" stroke-width="164.885" stroke-linecap="round" stroke-linejoin="round"/>
<path d="M1978.62 2308.95H2473.27" stroke="#4C241D" stroke-width="164.885" stroke-linecap="round" stroke-linejoin="round"/>
<path d="M2660.18 3659.44L3215.26 3792.92L3000.42 4251.63L3709.92 4534.9" stroke="#4C241D" stroke-width="164.885" stroke-linecap="round" stroke-linejoin="round"/>
<path d="M1828.65 3659.44L1249 3848.4L1526.25 4302L833.24 4541.41" stroke="#4C241D" stroke-width="164.885" stroke-linecap="round" stroke-linejoin="round"/>
</svg>
