<svg width="66" height="71" viewBox="0 0 66 71" fill="none" xmlns="http://www.w3.org/2000/svg">
<path d="M33.4743 65.7245C47.8011 65.7245 59.4153 54.1103 59.4153 39.7836C59.4153 25.4568 47.8011 13.8426 33.4743 13.8426C19.1475 13.8426 7.53336 25.4568 7.53336 39.7836C7.53336 54.1103 19.1475 65.7245 33.4743 65.7245Z" fill="#EDEBDC"/>
<path d="M42.5559 46.5508L57.7392 67.9712C58.1823 68.5963 58.8556 69.0198 59.6108 69.1486C60.3661 69.2774 61.1416 69.101 61.7669 68.6581L62.9015 67.8528C63.5266 67.4097 63.9501 66.7365 64.0789 65.9812C64.2077 65.2259 64.0312 64.4504 63.5884 63.8252L35.9308 24.8066C35.4877 24.1815 34.8145 23.758 34.0592 23.6292C33.3039 23.5004 32.5284 23.6769 31.9032 24.1197L30.7686 24.925C30.1435 25.3681 29.72 26.0413 29.5912 26.7966C29.4624 27.5519 29.6388 28.3274 30.0817 28.9527L38.3535 40.6227" fill="#FC8C29"/>
<path d="M42.5559 46.5508L57.7392 67.9712C58.1823 68.5963 58.8556 69.0198 59.6108 69.1486C60.3661 69.2774 61.1416 69.101 61.7669 68.6581L62.9015 67.8528C63.5266 67.4097 63.9501 66.7365 64.0789 65.9812C64.2077 65.2259 64.0312 64.4504 63.5884 63.8252L35.9308 24.8066C35.4877 24.1815 34.8145 23.758 34.0592 23.6292C33.3039 23.5004 32.5284 23.6769 31.9032 24.1197L30.7686 24.925C30.1435 25.3681 29.72 26.0413 29.5912 26.7966C29.4624 27.5519 29.6388 28.3274 30.0817 28.9527L38.3535 40.6227" stroke="#4C241D" stroke-width="2.25573" stroke-linecap="round" stroke-linejoin="round"/>
<path d="M44.1349 19.8462L23.557 33.0164C23.0413 33.3455 22.416 33.4567 21.8184 33.3253C21.2209 33.194 20.6998 32.831 20.3696 32.3159L16.7819 26.7003C16.6185 26.4452 16.507 26.1603 16.4537 25.862C16.4005 25.5638 16.4066 25.2579 16.4716 24.962C16.5367 24.6661 16.6594 24.3859 16.8328 24.1374C17.0062 23.889 17.2269 23.6772 17.4823 23.5141L28.9628 16.0983L44.1349 19.8462Z" fill="#FFCE56" stroke="#4C241D" stroke-width="2.25573" stroke-linecap="round" stroke-linejoin="round"/>
<path d="M39.0753 18.6631L32.5269 22.852Z" fill="#FFCE56"/>
<path d="M39.0753 18.6631L32.5269 22.852" stroke="#4C241D" stroke-width="2.25573" stroke-linecap="round" stroke-linejoin="round"/>
<path d="M33.436 17.5352L29.3655 20.1395Z" fill="#FFCE56"/>
<path d="M33.436 17.5352L29.3655 20.1395" stroke="#4C241D" stroke-width="2.25573" stroke-linecap="round" stroke-linejoin="round"/>
<path d="M60.5251 43.9251C61.191 43.9251 61.7308 43.3853 61.7308 42.7194C61.7308 42.0535 61.191 41.5137 60.5251 41.5137C59.8592 41.5137 59.3194 42.0535 59.3194 42.7194C59.3194 43.3853 59.8592 43.9251 60.5251 43.9251Z" fill="#4C241D"/>
<path d="M39.7746 60.7461L42.9642 63.9357" stroke="#4C241D" stroke-width="2.25573" stroke-linecap="round" stroke-linejoin="round"/>
<path d="M42.9642 60.7461L39.7746 63.9357" stroke="#4C241D" stroke-width="2.25573" stroke-linecap="round" stroke-linejoin="round"/>
<path d="M5.44343 30.3895C6.74219 30.3895 7.79503 29.3367 7.79503 28.0379C7.79503 26.7392 6.74219 25.6863 5.44343 25.6863C4.14468 25.6863 3.09183 26.7392 3.09183 28.0379C3.09183 29.3367 4.14468 30.3895 5.44343 30.3895Z" stroke="#4C241D" stroke-width="2.25573" stroke-linecap="round" stroke-linejoin="round"/>
<path d="M42.601 6.89833C45.1595 8.43089 47.3699 10.4806 49.0909 12.9164C50.8118 15.3522 52.0054 18.1204 52.5952 21.0439C53.1851 23.9673 53.1582 26.9818 52.5163 29.8943C51.8744 32.8068 50.6316 35.5532 48.8675 37.9579C47.1033 40.3626 44.8567 42.3725 42.2712 43.8592C39.6858 45.3459 36.8185 46.2765 33.8528 46.5916C30.8871 46.9066 27.8883 46.5991 25.0482 45.6888C22.2081 44.7785 19.5893 43.2854 17.3593 41.305L17.1247 41.1607L16.845 41.6118L14.6761 45.1567L11.2373 50.7769L9.47104 53.6676L15.2435 57.2001L19.9523 49.5035C22.8249 51.2593 26.0247 52.4121 29.3569 52.8918C32.6892 53.3716 36.0842 53.1682 39.3354 52.294C42.5866 51.4199 45.6258 49.8933 48.2682 47.8071C50.9106 45.721 53.1008 43.1189 54.7056 40.1594C56.3103 37.1998 57.296 33.9447 57.6026 30.592C57.9093 27.2394 57.5305 23.8594 56.4893 20.6579C55.448 17.4563 53.7662 14.5001 51.5461 11.9692C49.326 9.43832 46.6141 7.38569 43.5755 5.93626L42.601 6.89833Z" fill="#FFCE56" stroke="#4C241D" stroke-width="2.25573" stroke-linecap="round" stroke-linejoin="round"/>
<path d="M17.125 50.6407L14.3563 48.9464C12.9956 48.1137 11.2175 48.5417 10.3848 49.9024L2.50771 62.7743C1.67502 64.135 2.10305 65.9131 3.46374 66.7458L6.23245 68.4401C7.59314 69.2728 9.37122 68.8448 10.2039 67.4841L18.081 54.6122C18.9137 53.2515 18.4857 51.4734 17.125 50.6407Z" fill="#FC8C29" stroke="#4C241D" stroke-width="2.25573" stroke-linecap="round" stroke-linejoin="round"/>
<path d="M7.35967 61.6732L4.59189 59.9792Z" fill="#FC8C29"/>
<path d="M7.35967 61.6732L4.59189 59.9792" stroke="#4C241D" stroke-width="2.25573" stroke-linecap="round" stroke-linejoin="round"/>
<path d="M9.61541 58.2896L6.84763 56.5956Z" fill="#FC8C29"/>
<path d="M9.61541 58.2896L6.84763 56.5956" stroke="#4C241D" stroke-width="2.25573" stroke-linecap="round" stroke-linejoin="round"/>
<path d="M20.5038 2L22.4178 5.00577L25.8668 5.89678L23.5998 8.64539L23.8186 12.2016L20.5038 10.8955L17.189 12.2016L17.4078 8.64539L15.1408 5.89678L18.5898 5.00577L20.5038 2Z" fill="#E66353" stroke="#4C241D" stroke-width="2.25573" stroke-linecap="round" stroke-linejoin="round"/>
</svg>
