<svg width="4190" height="4399" viewBox="0 0 4190 4399" fill="none" xmlns="http://www.w3.org/2000/svg">
<path d="M2016.08 3950.09C2964.41 3950.09 3733.19 3181.31 3733.19 2232.98C3733.19 1284.65 2964.41 515.87 2016.08 515.87C1067.75 515.87 298.971 1284.65 298.971 2232.98C298.971 3181.31 1067.75 3950.09 2016.08 3950.09Z" fill="#E5EFEF"/>
<path d="M2424.23 3128.87C2655.21 3128.92 2881.81 3065.9 3079.59 2946.6C3277.38 2827.31 3438.84 2656.28 3546.55 2451.96H1302.14C1409.83 2656.25 1571.25 2827.26 1768.99 2946.55C1966.74 3065.84 2193.29 3128.88 2424.23 3128.87Z" fill="#F53E28" stroke="#4C241D" stroke-width="149.314" stroke-linecap="round" stroke-linejoin="round"/>
<path d="M3546.53 1267.43H1302.12C1205.54 1449.91 1155.05 1653.23 1155.05 1859.69C1155.05 2066.14 1205.54 2269.47 1302.12 2451.94H3546.53C3643.11 2269.47 3693.6 2066.14 3693.6 1859.69C3693.6 1653.23 3643.11 1449.91 3546.53 1267.43Z" fill="#FFCE56" stroke="#4C241D" stroke-width="149.314" stroke-linecap="round" stroke-linejoin="round"/>
<path d="M2424.23 590.526C2193.29 590.52 1966.74 653.561 1768.99 772.851C1571.25 892.14 1409.83 1063.15 1302.14 1267.44H3546.55C3438.84 1063.12 3277.38 892.085 3079.59 772.793C2881.81 653.501 2655.21 590.479 2424.23 590.526Z" fill="#F53E28" stroke="#4C241D" stroke-width="149.314" stroke-linecap="round" stroke-linejoin="round"/>
<path d="M1874.25 2189.97L1359.11 2940.27C1337.7 2976.38 1329.77 3018.91 1336.74 3060.31C1343.71 3101.71 1365.13 3139.3 1397.19 3166.4L1602.27 3339.91C1650.93 3381.04 1686.44 3435.55 1704.41 3496.67C1722.38 3557.8 1722.01 3622.86 1703.36 3683.78L1648.48 3862.95L1107.82 3304.29C1050.09 3244.63 1012.18 3168.59 999.288 3086.57C986.393 3004.55 999.136 2920.55 1035.78 2846.05L1486.93 1928.59L1874.25 2189.97Z" fill="#6B4F5B" stroke="#4C241D" stroke-width="149.314" stroke-linecap="round" stroke-linejoin="round"/>
<path d="M2314.71 2531.6L1642.8 4323.37C1607.29 4323.37 1572.24 4315.3 1540.3 4299.76C1508.37 4284.23 1480.39 4261.64 1458.47 4233.7C1436.55 4205.76 1421.26 4173.2 1413.78 4138.49C1406.29 4103.78 1406.79 4067.81 1415.24 4033.32L1857.96 2227.07L2314.71 2531.6Z" fill="#6B4F5B" stroke="#4C241D" stroke-width="149.314" stroke-linecap="round" stroke-linejoin="round"/>
<path d="M1509.67 1203.45L521.208 1258.4C498.994 1259.61 476.846 1255.02 456.947 1245.07C437.048 1235.12 420.085 1220.16 407.73 1201.66C395.938 1183.96 388.747 1163.6 386.809 1142.43C384.871 1121.25 388.248 1099.93 396.632 1080.38C405.017 1060.84 418.145 1043.7 434.827 1030.51C451.509 1017.33 471.217 1008.51 492.167 1004.86L1557.07 819.637L1509.67 1203.45Z" fill="#FFE8DC" stroke="#4C241D" stroke-width="149.314" stroke-linecap="round" stroke-linejoin="round"/>
<path d="M3081.64 1331.87L3297.03 1451.32C3316.56 1462.15 3338.33 1468.29 3360.64 1469.27C3382.95 1470.26 3405.18 1466.06 3425.59 1457L3964.98 1217.65C3984.63 1208.9 4006.48 1206.31 4027.63 1210.23C4048.78 1214.15 4068.25 1224.39 4083.46 1239.6C4094.98 1251.11 4103.71 1265.11 4108.96 1280.53C4114.22 1295.95 4115.87 1312.36 4113.79 1328.52C4111.7 1344.67 4105.94 1360.13 4096.94 1373.71C4087.94 1387.28 4075.95 1398.61 4061.89 1406.83L3383.11 1802.51C3352.75 1820.22 3318.66 1830.58 3283.58 1832.74C3248.49 1834.91 3213.39 1828.82 3181.08 1814.98L3006.01 1740.25L3081.64 1331.87Z" fill="#FFE8DC" stroke="#4C241D" stroke-width="149.314" stroke-linecap="round" stroke-linejoin="round"/>
<path d="M3006.03 1740.25L2762.65 1635.73L2314.71 2531.61L1418.82 1934.36L1792.11 1187.79L1509.68 1203.47L1557.09 819.657L1803.9 776.729C1941.21 752.872 2082.54 776.77 2204.36 844.443L3081.66 1331.88L3006.03 1740.25Z" fill="white" stroke="#4C241D" stroke-width="149.314" stroke-linecap="round" stroke-linejoin="round"/>
<path d="M373.627 2009.01V2158.32" stroke="#4C241D" stroke-width="149.314" stroke-linecap="round" stroke-linejoin="round"/>
<path d="M373.627 2456.95V2606.26" stroke="#4C241D" stroke-width="149.314" stroke-linecap="round" stroke-linejoin="round"/>
<path d="M75 2307.64H224.314" stroke="#4C241D" stroke-width="149.314" stroke-linecap="round" stroke-linejoin="round"/>
<path d="M522.941 2307.64H672.255" stroke="#4C241D" stroke-width="149.314" stroke-linecap="round" stroke-linejoin="round"/>
<path d="M379.737 3775.88C379.767 3791.68 375.111 3807.12 366.36 3820.26C357.609 3833.41 345.155 3843.66 330.574 3849.72C315.994 3855.79 299.942 3857.39 284.451 3854.33C268.96 3851.26 254.726 3843.68 243.549 3832.52C232.373 3821.36 224.757 3807.14 221.666 3791.66C218.574 3776.17 220.146 3760.12 226.182 3745.53C232.218 3730.94 242.447 3718.46 255.575 3709.69C268.702 3700.91 284.138 3696.23 299.929 3696.23C321.064 3696.25 341.329 3704.64 356.288 3719.57C371.246 3734.5 379.678 3754.75 379.737 3775.88Z" fill="#4C241D"/>
<path d="M2853.59 931.471L2711.74 863.683C2663.94 840.896 2621.09 808.915 2585.65 769.567C2550.21 730.218 2522.88 684.273 2505.2 634.356C2487.52 584.44 2479.85 531.529 2482.62 478.646C2485.39 425.764 2498.56 373.946 2521.37 326.153L2564.96 234.623C2596.98 167.54 2654.33 115.915 2724.39 91.0947C2794.46 66.274 2871.52 70.2888 2938.62 102.257C3005.62 134.262 3057.19 191.541 3082.01 261.524C3106.82 331.507 3102.86 408.476 3070.99 475.541L2853.59 931.471Z" fill="#FFE8DC" stroke="#4C241D" stroke-width="149.314" stroke-linecap="round" stroke-linejoin="round"/>
<path d="M3098.61 4248.72C3325.38 4248.72 3509.22 4064.88 3509.22 3838.1C3509.22 3611.33 3325.38 3427.49 3098.61 3427.49C2871.83 3427.49 2687.99 3611.33 2687.99 3838.1C2687.99 4064.88 2871.83 4248.72 3098.61 4248.72Z" fill="white" stroke="#4C241D" stroke-width="149.314" stroke-linecap="round" stroke-linejoin="round"/>
<path d="M3098.62 3919.45C3143.56 3919.45 3179.99 3883.02 3179.99 3838.08C3179.99 3793.14 3143.56 3756.7 3098.62 3756.7C3053.67 3756.7 3017.24 3793.14 3017.24 3838.08C3017.24 3883.02 3053.67 3919.45 3098.62 3919.45Z" fill="#4C241D"/>
<path d="M3098.62 3546.17C3143.56 3546.17 3179.99 3509.74 3179.99 3464.79C3179.99 3419.85 3143.56 3383.42 3098.62 3383.42C3053.67 3383.42 3017.24 3419.85 3017.24 3464.79C3017.24 3509.74 3053.67 3546.17 3098.62 3546.17Z" fill="#4C241D"/>
<path d="M3471.9 3919.45C3516.84 3919.45 3553.28 3883.02 3553.28 3838.08C3553.28 3793.14 3516.84 3756.7 3471.9 3756.7C3426.96 3756.7 3390.53 3793.14 3390.53 3838.08C3390.53 3883.02 3426.96 3919.45 3471.9 3919.45Z" fill="#4C241D"/>
<path d="M3322.59 4218.08C3367.53 4218.08 3403.96 4181.65 3403.96 4136.71C3403.96 4091.76 3367.53 4055.33 3322.59 4055.33C3277.65 4055.33 3241.21 4091.76 3241.21 4136.71C3241.21 4181.65 3277.65 4218.08 3322.59 4218.08Z" fill="#4C241D"/>
<path d="M2874.65 4218.08C2919.59 4218.08 2956.02 4181.65 2956.02 4136.71C2956.02 4091.76 2919.59 4055.33 2874.65 4055.33C2829.7 4055.33 2793.27 4091.76 2793.27 4136.71C2793.27 4181.65 2829.7 4218.08 2874.65 4218.08Z" fill="#4C241D"/>
<path d="M2725.33 3919.45C2770.28 3919.45 2806.71 3883.02 2806.71 3838.08C2806.71 3793.14 2770.28 3756.7 2725.33 3756.7C2680.39 3756.7 2643.96 3793.14 2643.96 3838.08C2643.96 3883.02 2680.39 3919.45 2725.33 3919.45Z" fill="#4C241D"/>
</svg>
