<svg width="165" height="39" viewBox="0 0 165 39" fill="none" xmlns="http://www.w3.org/2000/svg">
<path d="M0 8.00011C0 3.58184 3.58172 0.00012207 8 0.00012207H70.0868V38.7479H8.00001C3.58173 38.7479 0 35.1661 0 30.7479V8.00011Z" fill="#DA615C"/>
<path d="M162.796 30.7478C162.796 35.166 159.214 38.7477 154.796 38.7477L70.0865 38.7477V-1.50515e-06L154.796 -1.50515e-06C159.214 -1.50515e-06 162.796 3.58172 162.796 8V30.7478Z" fill="#5C8EDA"/>
<path d="M22.7598 7.18243C23.4772 7.18243 24.223 7.29572 24.9971 7.52228C25.7712 7.74884 26.4792 8.117 27.1211 8.62677C27.7819 9.11766 28.32 9.76902 28.7354 10.5809C29.1507 11.3738 29.3584 12.3462 29.3584 13.4979C29.3584 14.5363 29.1602 15.5464 28.7637 16.5281C28.3861 17.5099 27.8385 18.4067 27.1211 19.2186C26.4225 20.0304 25.5729 20.729 24.5723 21.3143C23.5716 21.8807 22.4577 22.2677 21.2305 22.4754C21.2305 23.2495 21.2588 23.9197 21.3154 24.4861C21.3343 25.0148 21.3532 25.4679 21.3721 25.8455C21.4098 26.2042 21.4382 26.5158 21.457 26.7801C21.4948 27.0444 21.5326 27.2804 21.5703 27.4881C21.6081 27.7147 21.6553 27.9318 21.7119 28.1395C21.3343 28.4227 20.9756 28.6304 20.6357 28.7625C20.2959 28.8947 19.9938 28.9891 19.7295 29.0457C19.4274 29.1212 19.1442 29.1401 18.8799 29.1024C18.7855 28.8569 18.7005 28.5832 18.625 28.2811C18.5495 27.9979 18.4928 27.6203 18.4551 27.1483C18.4362 26.6762 18.4268 26.0815 18.4268 25.3641C18.4268 24.6277 18.4456 23.6932 18.4834 22.5604C18.3324 22.5415 18.1719 22.532 18.002 22.532C17.832 22.5132 17.6715 22.4848 17.5205 22.4471C17.3883 22.145 17.3034 21.8807 17.2656 21.6541C17.2279 21.4276 17.209 21.2387 17.209 21.0877C17.209 20.8989 17.2279 20.7479 17.2656 20.6346C17.4167 20.6535 17.5677 20.6723 17.7188 20.6912C17.8698 20.6912 18.0114 20.6912 18.1436 20.6912C18.2946 20.7101 18.4362 20.7195 18.5684 20.7195C18.6061 19.8511 18.6439 18.9542 18.6816 18.0291C18.7383 17.0851 18.776 16.1694 18.7949 15.282C18.8327 14.3947 18.861 13.5451 18.8799 12.7332C18.9176 11.9025 18.946 11.1662 18.9648 10.5242C18.3984 10.9018 17.8981 11.3927 17.4639 11.9969C17.0485 12.6011 16.7747 13.2996 16.6426 14.0926C16.3971 14.0548 16.1895 13.9415 16.0195 13.7527C15.8496 13.5451 15.708 13.3374 15.5947 13.1297C15.4626 12.8843 15.3493 12.6105 15.2549 12.3084C15.1605 11.9497 15.1605 11.591 15.2549 11.2322C15.3304 10.8546 15.4626 10.5054 15.6514 10.1844C15.8402 9.84454 16.0573 9.5519 16.3027 9.30646C16.5482 9.04213 16.7842 8.83445 17.0107 8.68341C17.4261 8.43797 17.8415 8.22085 18.2568 8.03204C18.6722 7.82436 19.1442 7.65444 19.6729 7.52228C19.8805 7.3146 20.1071 7.12579 20.3525 6.95587C20.6169 6.78595 20.8717 6.68211 21.1172 6.64435C21.4193 6.56883 21.5892 6.76707 21.627 7.23907C21.7969 7.22019 21.9762 7.21075 22.165 7.21075C22.3538 7.19187 22.5521 7.18243 22.7598 7.18243ZM21.2305 20.3514C21.7402 20.2003 22.2972 19.9738 22.9014 19.6717C23.5055 19.3696 24.0719 18.9731 24.6006 18.4822C25.1292 17.9725 25.5729 17.3494 25.9316 16.6131C26.2904 15.8768 26.4697 14.9894 26.4697 13.951C26.4697 13.158 26.3281 12.4878 26.0449 11.9402C25.7806 11.3738 25.4313 10.9207 24.9971 10.5809C24.5628 10.2221 24.0814 9.96726 23.5527 9.81622C23.043 9.6463 22.5332 9.56134 22.0234 9.56134C21.929 9.56134 21.8346 9.56134 21.7402 9.56134C21.6458 9.56134 21.5514 9.57078 21.457 9.58966C21.4004 10.1938 21.3721 10.8452 21.3721 11.5438C21.3721 12.0158 21.3626 12.5916 21.3438 13.2713C21.3249 13.9321 21.306 14.6496 21.2871 15.4236C21.2682 16.1977 21.2493 17.0096 21.2305 17.8592C21.2305 18.7088 21.2305 19.5395 21.2305 20.3514ZM38.3643 7.77716C39.0628 7.79604 39.7425 8.04148 40.4033 8.51349C41.083 8.98549 41.6777 9.6463 42.1875 10.4959C42.6973 11.3455 43.0938 12.3651 43.377 13.5545C43.679 14.744 43.8206 16.075 43.8018 17.5477C43.764 19.1902 43.5658 20.7101 43.207 22.1072C42.8483 23.5044 42.348 24.7127 41.7061 25.7322C41.083 26.7518 40.3278 27.5447 39.4404 28.1111C38.5531 28.6776 37.5713 28.9513 36.4951 28.9324C35.4756 28.9136 34.541 28.687 33.6914 28.2527C32.8607 27.8185 32.1527 27.1671 31.5674 26.2986C30.9821 25.4302 30.529 24.3351 30.208 23.0135C29.9059 21.6919 29.7738 20.1343 29.8115 18.3406C29.8493 16.547 30.1136 14.98 30.6045 13.6395C31.1143 12.2801 31.7184 11.1473 32.417 10.241C33.1156 9.3159 33.833 8.61733 34.5693 8.14532C35.3057 7.65444 35.9287 7.38068 36.4385 7.32404C36.7594 7.5506 36.986 7.76772 37.1182 7.9754C37.2692 7.91876 37.4391 7.87156 37.6279 7.8338C37.8356 7.79604 38.0811 7.77716 38.3643 7.77716ZM40.9131 17.7176C40.932 16.7547 40.8659 15.8296 40.7148 14.9422C40.5638 14.0359 40.3561 13.2335 40.0918 12.535C39.8464 11.8364 39.5632 11.2794 39.2422 10.8641C38.9212 10.4298 38.6003 10.2033 38.2793 10.1844C38.0339 10.2033 37.7884 10.2788 37.543 10.4109C37.3353 10.5431 37.1087 10.7414 36.8633 11.0057C36.6178 11.27 36.3913 11.6476 36.1836 12.1385C35.9948 11.8742 35.8721 11.591 35.8154 11.2889C35.7777 10.9868 35.7777 10.6847 35.8154 10.3826C35.3057 10.7602 34.862 11.2322 34.4844 11.7986C34.1068 12.3462 33.7952 12.9598 33.5498 13.6395C33.3044 14.3003 33.1156 15.0083 32.9834 15.7635C32.8512 16.4998 32.7757 17.255 32.7568 18.0291C32.7191 19.5773 32.7946 20.8989 32.9834 21.994C33.1911 23.089 33.4648 23.9953 33.8047 24.7127C34.1634 25.4113 34.5788 25.9305 35.0508 26.2703C35.5228 26.5913 36.0326 26.7518 36.5801 26.7518C37.222 26.7707 37.7979 26.5441 38.3076 26.0721C38.8363 25.5812 39.2894 24.9204 39.667 24.0897C40.0446 23.2589 40.3372 22.296 40.5449 21.201C40.7715 20.1059 40.8942 18.9448 40.9131 17.7176ZM46.6338 19.2752C46.124 17.4061 45.7559 15.8673 45.5293 14.659C45.3027 13.4507 45.1423 12.4972 45.0479 11.7986C44.9723 11.0812 44.944 10.5714 44.9629 10.2693C44.9818 9.94838 44.9912 9.75014 44.9912 9.67462C44.9723 9.37254 45.0101 9.05157 45.1045 8.71173C45.2178 8.37189 45.4821 8.08868 45.8975 7.86212C46.3883 7.54116 46.8415 7.3618 47.2568 7.32404C47.6911 7.2674 47.9271 7.25795 47.9648 7.29572C47.8704 7.5034 47.8138 7.7394 47.7949 8.00372C47.776 8.26805 47.7949 8.65509 47.8516 9.16486C47.9082 9.65574 47.9932 10.326 48.1064 11.1756C48.2386 12.0063 48.4085 13.1108 48.6162 14.4891C48.7673 15.5086 48.9277 16.4998 49.0977 17.4627C49.2865 18.4256 49.4658 19.3413 49.6357 20.2098C49.8245 21.0594 50.0039 21.8524 50.1738 22.5887C50.3438 23.325 50.5042 23.9764 50.6553 24.5428C50.7686 24.0519 50.8818 23.4855 50.9951 22.8436C51.1273 22.1828 51.2594 21.4842 51.3916 20.7479C51.5426 20.0115 51.7031 19.2563 51.873 18.4822C52.0618 17.7082 52.2601 16.9435 52.4678 16.1883C52.6755 15.2632 52.902 14.3286 53.1475 13.3846C53.3551 12.5727 53.5911 11.7042 53.8555 10.7791C54.1387 9.8351 54.4408 8.96661 54.7617 8.17365C55.2148 7.90932 55.6396 7.7394 56.0361 7.66388C56.4515 7.58836 56.8102 7.56948 57.1123 7.60724C57.4521 7.645 57.7731 7.72052 58.0752 7.8338C57.8864 8.23029 57.6882 8.69285 57.4805 9.2215C57.2728 9.73126 57.0651 10.2693 56.8574 10.8358C56.6686 11.3833 56.4798 11.9497 56.291 12.535C56.1022 13.1203 55.9229 13.6867 55.7529 14.2342C55.3564 15.5369 54.96 16.868 54.5635 18.2274C54.2425 19.3602 53.931 20.5119 53.6289 21.6824C53.3646 22.6831 53.0908 23.7593 52.8076 24.9109C52.5433 26.0626 52.3073 27.1483 52.0996 28.1678C52.0996 28.2622 51.9863 28.366 51.7598 28.4793C51.5521 28.5926 51.2972 28.687 50.9951 28.7625C50.7119 28.8569 50.4004 28.9136 50.0605 28.9324C49.7396 28.9702 49.4564 28.9419 49.2109 28.8475C48.8711 27.979 48.5501 26.9972 48.248 25.9022C47.946 24.7882 47.6722 23.7404 47.4268 22.7586C47.1436 21.6069 46.8792 20.4458 46.6338 19.2752Z" fill="white"/>
<path d="M78.9844 23.8611C77.6562 23.8611 76.6016 23.2752 75.8203 22.1033C75.0547 20.9315 74.5859 19.2596 74.4141 17.0877C74.3516 16.3377 74.3438 15.5955 74.3906 14.8611C74.4375 14.1268 74.5156 13.4549 74.625 12.8455C74.7344 12.2361 74.8672 11.7127 75.0234 11.2752C75.1797 10.8377 75.3359 10.5408 75.4922 10.3846C75.6484 10.2283 75.8281 10.0877 76.0312 9.96271C76.2344 9.83771 76.4297 9.74396 76.6172 9.68146C76.8203 9.60333 77.0078 9.57208 77.1797 9.58771C77.3516 9.58771 77.4922 9.63458 77.6016 9.72833C77.2734 10.7596 77.0234 11.783 76.8516 12.7986C76.6797 13.7986 76.5781 14.7518 76.5469 15.658C76.5312 16.5643 76.5703 17.408 76.6641 18.1893C76.7734 18.9705 76.9375 19.6424 77.1562 20.2049C77.375 20.7674 77.6484 21.2127 77.9766 21.5408C78.3047 21.8533 78.6797 22.0096 79.1016 22.0096C79.8359 22.0096 80.3906 21.6893 80.7656 21.0486C81.1562 20.408 81.4297 19.5877 81.5859 18.5877C81.7422 17.5877 81.8203 16.4783 81.8203 15.2596C81.8203 14.0408 81.8125 12.8455 81.7969 11.6736C81.7812 11.1111 81.8203 10.6815 81.9141 10.3846C82.0234 10.0721 82.25 9.85333 82.5938 9.72833C82.7188 9.68146 82.8438 9.6424 82.9688 9.61115C83.2188 9.54865 83.4219 9.56427 83.5781 9.65802C83.7031 10.158 83.7969 10.783 83.8594 11.533C83.9375 12.2674 83.9922 12.994 84.0234 13.7127C84.0703 14.5565 84.0938 15.4236 84.0938 16.3143C84.125 16.6268 84.1562 17.0565 84.1875 17.6033C84.2344 18.1502 84.2578 18.7596 84.2578 19.4315C84.2578 20.1033 84.2344 20.8221 84.1875 21.5877C84.1406 22.3377 84.0469 23.0877 83.9062 23.8377C83.7656 24.5721 83.5703 25.2752 83.3203 25.9471C83.0703 26.6346 82.7344 27.2361 82.3125 27.7518C81.8906 28.283 81.3828 28.6971 80.7891 28.994C80.1953 29.3065 79.4922 29.4627 78.6797 29.4627C78.0234 29.4627 77.4453 29.283 76.9453 28.9236C76.4453 28.5643 76.0391 28.1502 75.7266 27.6815C75.4297 27.2283 75.2266 26.7908 75.1172 26.369C75.0234 25.9471 75.0469 25.6658 75.1875 25.5252L76.3594 24.4705C76.5156 25.2361 76.7344 25.8221 77.0156 26.2283C77.3125 26.6346 77.6094 26.9315 77.9062 27.119C78.25 27.3377 78.6094 27.4627 78.9844 27.494C79.5938 27.494 80.0859 27.3377 80.4609 27.0252C80.8516 26.7283 81.1641 26.3065 81.3984 25.7596C81.6328 25.2127 81.8047 24.5643 81.9141 23.8143C82.0234 23.0486 82.1016 22.2205 82.1484 21.3299C81.8516 22.033 81.4453 22.6346 80.9297 23.1346C80.4297 23.619 79.7812 23.8611 78.9844 23.8611ZM89.2734 27.7518C88.5391 27.7518 87.9141 27.5955 87.3984 27.283C86.8984 26.9705 86.4922 26.5721 86.1797 26.0877C85.8828 25.619 85.6641 25.0877 85.5234 24.494C85.3984 23.9002 85.3359 23.3221 85.3359 22.7596C85.3359 22.2752 85.3984 21.8221 85.5234 21.4002C85.6641 20.9627 85.7891 20.6658 85.8984 20.5096C85.9766 20.4002 86.0781 20.283 86.2031 20.158C86.3281 20.033 86.5078 19.9471 86.7422 19.9002C86.9922 19.8533 87.2422 19.7986 87.4922 19.7361C87.7109 19.6893 87.9219 19.6502 88.125 19.619C88.3438 19.5877 88.5391 19.5565 88.7109 19.5252C88.4766 19.7908 88.2812 20.0955 88.125 20.4393C87.9688 20.783 87.8516 21.1424 87.7734 21.5174C87.6953 21.8768 87.6406 22.2283 87.6094 22.5721C87.5781 22.9158 87.5781 23.2283 87.6094 23.5096C87.6562 24.2908 87.8828 24.9315 88.2891 25.4315C88.7109 25.9158 89.1719 26.158 89.6719 26.158C90.0625 26.158 90.3984 26.0408 90.6797 25.8065C90.9609 25.5877 91.1953 25.2986 91.3828 24.9393C91.5703 24.5799 91.7188 24.1658 91.8281 23.6971C91.9375 23.2283 92.0156 22.7596 92.0625 22.2908C92.1094 21.8065 92.1406 21.3377 92.1562 20.8846C92.1719 20.4158 92.1797 20.0096 92.1797 19.6658C92.1797 19.0877 92.1484 18.4549 92.0859 17.7674C92.0391 17.0799 91.9766 16.3924 91.8984 15.7049C91.8203 15.0174 91.7344 14.369 91.6406 13.7596C91.5625 13.1346 91.4922 12.6111 91.4297 12.1893C90.8047 12.283 90.2734 12.4002 89.8359 12.5408C89.3984 12.6815 88.9922 12.7986 88.6172 12.8924C88.4453 12.9236 88.3359 12.8924 88.2891 12.7986C88.0234 12.3611 87.8828 11.9705 87.8672 11.6268C87.8516 11.283 87.8672 11.0252 87.9141 10.8533C87.9297 10.7752 88.0156 10.7049 88.1719 10.6424C88.7344 10.4549 89.4609 10.2752 90.3516 10.1033C91.2422 9.93146 92.25 9.82208 93.375 9.77521C93.6875 9.77521 93.9844 9.78302 94.2656 9.79865C94.5156 9.81427 94.7734 9.84552 95.0391 9.8924C95.3203 9.93927 95.5703 10.0096 95.7891 10.1033C95.8828 10.1815 95.9531 10.283 96 10.408C96.0469 10.5174 96.0859 10.6346 96.1172 10.7596C96.1484 10.9158 96.1641 11.0721 96.1641 11.2283C96.1641 11.4002 96.1484 11.5721 96.1172 11.744C96.0859 11.9002 96.0469 12.0721 96 12.2596C95.9531 12.4471 95.8906 12.6346 95.8125 12.8221C95.7344 12.7283 95.6484 12.6424 95.5547 12.5643C95.4766 12.4705 95.3594 12.3924 95.2031 12.3299C95.0469 12.2518 94.8438 12.1971 94.5938 12.1658C94.3438 12.119 94.0078 12.0877 93.5859 12.0721C93.7266 12.9471 93.8438 13.7127 93.9375 14.369C94.0469 15.0252 94.1328 15.6658 94.1953 16.2908C94.2734 16.9158 94.3281 17.5721 94.3594 18.2596C94.4062 18.9471 94.4297 19.7596 94.4297 20.6971C94.4297 21.9783 94.2891 23.0721 94.0078 23.9783C93.7266 24.869 93.3438 25.5955 92.8594 26.158C92.3906 26.7205 91.8438 27.1268 91.2188 27.3768C90.5938 27.6268 89.9453 27.7518 89.2734 27.7518ZM95.8359 12.658C95.7578 12.5643 95.6953 12.4549 95.6484 12.3299C95.6016 12.2049 95.5625 12.0799 95.5312 11.9549C95.5 11.8143 95.4766 11.6736 95.4609 11.533V11.1346C95.4609 11.0252 95.4688 10.9236 95.4844 10.8299C95.5 10.7205 95.5391 10.6346 95.6016 10.5721C96.0859 10.4471 96.6094 10.3533 97.1719 10.2908C97.7344 10.2127 98.2656 10.1424 98.7656 10.0799C99.3438 10.0174 99.9141 9.96271 100.477 9.91583C100.633 9.80646 100.773 9.72833 100.898 9.68146C101.023 9.63458 101.125 9.63458 101.203 9.68146C101.234 9.68146 101.266 9.74396 101.297 9.86896H101.391C101.953 9.85333 102.492 9.83771 103.008 9.82208C103.445 9.80646 103.875 9.80646 104.297 9.82208C104.734 9.82208 105.07 9.8299 105.305 9.84552C105.43 9.86115 105.523 9.9549 105.586 10.1268C105.648 10.2986 105.664 10.5174 105.633 10.783C105.617 11.0486 105.547 11.3377 105.422 11.6502C105.297 11.9627 105.094 12.2596 104.812 12.5408C104.453 12.4471 104.078 12.3846 103.688 12.3533C103.297 12.3065 102.945 12.2674 102.633 12.2361C102.242 12.2049 101.875 12.1893 101.531 12.1893H101.414C101.43 12.8143 101.438 13.5096 101.438 14.2752C101.438 15.0252 101.43 15.7908 101.414 16.5721C101.414 17.3377 101.406 18.0955 101.391 18.8455C101.375 19.5799 101.359 20.2361 101.344 20.8143C101.344 21.7361 101.344 22.533 101.344 23.2049C101.344 23.8611 101.367 24.4236 101.414 24.8924C101.461 25.3455 101.531 25.7127 101.625 25.994C101.719 26.2752 101.852 26.5018 102.023 26.6736C102.008 26.6893 101.961 26.7361 101.883 26.8143C101.82 26.908 101.727 27.0018 101.602 27.0955C101.492 27.1893 101.352 27.2752 101.18 27.3533C101.023 27.4315 100.844 27.4627 100.641 27.4471C100.125 27.4315 99.7422 27.2596 99.4922 26.9315C99.2422 26.6033 99.0703 26.1424 98.9766 25.5486C98.8828 24.9549 98.8438 24.2361 98.8594 23.3924C98.8906 22.5486 98.9375 21.5877 99 20.5096C99.0469 19.7752 99.0859 19.0174 99.1172 18.2361C99.1641 17.4549 99.2031 16.7049 99.2344 15.9861C99.2812 15.2518 99.3203 14.5721 99.3516 13.9471C99.3828 13.3065 99.4141 12.7518 99.4453 12.283C99.0547 12.2986 98.6562 12.3299 98.25 12.3768C97.8906 12.408 97.5 12.4471 97.0781 12.494C96.6562 12.5408 96.2422 12.5955 95.8359 12.658ZM118.383 27.5174C117.914 27.5018 117.594 27.3533 117.422 27.0721C117.25 26.8065 117.148 26.4315 117.117 25.9471C117.086 25.4627 117.102 24.8924 117.164 24.2361C117.227 23.5643 117.258 22.8377 117.258 22.0565C117.273 20.5096 117.328 19.1033 117.422 17.8377C117.531 16.5565 117.562 15.3143 117.516 14.1111C117.516 14.0174 117.516 13.9315 117.516 13.8533C117.516 13.7752 117.508 13.6971 117.492 13.619C117.414 13.8846 117.32 14.1893 117.211 14.533C117.117 14.8611 117 15.2283 116.859 15.6346C116.578 16.5096 116.297 17.408 116.016 18.3299C115.75 19.2518 115.484 20.1502 115.219 21.0252C114.969 21.8846 114.727 22.6893 114.492 23.4393C114.273 24.1736 114.078 24.7908 113.906 25.2908C113.734 25.7908 113.562 26.158 113.391 26.3924C113.234 26.6424 113.07 26.8143 112.898 26.908C112.742 27.0018 112.578 27.0408 112.406 27.0252C112.25 27.0096 112.094 26.994 111.938 26.9783C111.875 26.4471 111.758 25.8221 111.586 25.1033C111.414 24.3846 111.234 23.6971 111.047 23.0408C110.828 22.2752 110.586 21.494 110.32 20.6971C109.961 19.3221 109.586 18.0643 109.195 16.9236C108.805 15.783 108.5 14.8455 108.281 14.1111C108.188 14.908 108.117 15.8221 108.07 16.8533C108.023 17.8846 107.992 18.9158 107.977 19.9471C107.961 20.9783 107.969 21.9549 108 22.8768C108.031 23.783 108.078 24.5174 108.141 25.0799C108.156 25.3143 108.188 25.5486 108.234 25.783C108.266 25.9861 108.305 26.1893 108.352 26.3924C108.414 26.6111 108.484 26.8065 108.562 26.9783C108.484 27.0408 108.391 27.0955 108.281 27.1424C108.172 27.1893 108.055 27.2283 107.93 27.2596C107.789 27.3065 107.641 27.3455 107.484 27.3768C106.875 27.5018 106.43 27.4861 106.148 27.3299C105.883 27.1736 105.719 26.8611 105.656 26.3924C105.625 26.158 105.602 25.7205 105.586 25.0799C105.57 24.4393 105.562 23.7049 105.562 22.8768C105.578 22.033 105.602 21.1502 105.633 20.2283C105.664 19.3065 105.711 18.4471 105.773 17.6502C105.836 17.0096 105.898 16.3143 105.961 15.5643C106.023 14.908 106.086 14.1502 106.148 13.2908C106.211 12.4315 106.281 11.5018 106.359 10.5018C106.406 10.408 106.484 10.3299 106.594 10.2674C106.703 10.1893 106.82 10.1268 106.945 10.0799C107.086 10.0174 107.242 9.97052 107.414 9.93927C107.68 9.8924 107.914 9.85333 108.117 9.82208C108.289 9.79083 108.445 9.7674 108.586 9.75177C108.742 9.73615 108.805 9.73615 108.773 9.75177C108.977 10.1736 109.133 10.5252 109.242 10.8065C109.352 11.0721 109.461 11.3924 109.57 11.7674C109.695 12.1424 109.844 12.6346 110.016 13.244C110.203 13.8533 110.469 14.7049 110.812 15.7986C111.281 17.3143 111.68 18.6346 112.008 19.7596C112.352 20.8846 112.609 21.744 112.781 22.3377C112.891 22.1346 113 21.9158 113.109 21.6815C113.219 21.4315 113.328 21.1346 113.438 20.7908C113.562 20.4471 113.688 20.0486 113.812 19.5955C113.953 19.1268 114.109 18.5721 114.281 17.9315C114.5 17.2283 114.727 16.4705 114.961 15.658C115.148 14.9705 115.352 14.1893 115.57 13.3143C115.805 12.4236 116.023 11.5018 116.227 10.5486C116.727 10.3455 117.133 10.1971 117.445 10.1033C117.758 9.99396 118 9.90802 118.172 9.84552C118.375 9.78302 118.523 9.74396 118.617 9.72833C118.711 9.74396 118.805 9.79083 118.898 9.86896C118.977 9.94708 119.07 10.0565 119.18 10.1971C119.289 10.3377 119.406 10.5486 119.531 10.8299C119.531 11.0486 119.531 11.4002 119.531 11.8846C119.531 12.369 119.531 12.9315 119.531 13.5721C119.531 14.1971 119.523 14.8768 119.508 15.6111C119.492 16.3455 119.477 17.0877 119.461 17.8377C119.461 18.5721 119.453 19.2908 119.438 19.994C119.438 20.6971 119.43 21.3221 119.414 21.869C119.383 22.6971 119.375 23.4002 119.391 23.9783C119.422 24.5565 119.469 25.0408 119.531 25.4315C119.609 25.8065 119.703 26.1111 119.812 26.3455C119.938 26.5799 120.086 26.7674 120.258 26.908C120.211 26.9393 120.117 26.9861 119.977 27.0486C119.852 27.1268 119.695 27.1971 119.508 27.2596C119.32 27.3377 119.125 27.4002 118.922 27.4471C118.719 27.494 118.539 27.5174 118.383 27.5174ZM126.188 23.8611C124.859 23.8611 123.805 23.2752 123.023 22.1033C122.258 20.9315 121.789 19.2596 121.617 17.0877C121.555 16.3377 121.547 15.5955 121.594 14.8611C121.641 14.1268 121.719 13.4549 121.828 12.8455C121.938 12.2361 122.07 11.7127 122.227 11.2752C122.383 10.8377 122.539 10.5408 122.695 10.3846C122.852 10.2283 123.031 10.0877 123.234 9.96271C123.438 9.83771 123.633 9.74396 123.82 9.68146C124.023 9.60333 124.211 9.57208 124.383 9.58771C124.555 9.58771 124.695 9.63458 124.805 9.72833C124.477 10.7596 124.227 11.783 124.055 12.7986C123.883 13.7986 123.781 14.7518 123.75 15.658C123.734 16.5643 123.773 17.408 123.867 18.1893C123.977 18.9705 124.141 19.6424 124.359 20.2049C124.578 20.7674 124.852 21.2127 125.18 21.5408C125.508 21.8533 125.883 22.0096 126.305 22.0096C127.039 22.0096 127.594 21.6893 127.969 21.0486C128.359 20.408 128.633 19.5877 128.789 18.5877C128.945 17.5877 129.023 16.4783 129.023 15.2596C129.023 14.0408 129.016 12.8455 129 11.6736C128.984 11.1111 129.023 10.6815 129.117 10.3846C129.227 10.0721 129.453 9.85333 129.797 9.72833C129.922 9.68146 130.047 9.6424 130.172 9.61115C130.422 9.54865 130.625 9.56427 130.781 9.65802C130.906 10.158 131 10.783 131.062 11.533C131.141 12.2674 131.195 12.994 131.227 13.7127C131.273 14.5565 131.297 15.4236 131.297 16.3143C131.328 16.6268 131.359 17.0565 131.391 17.6033C131.438 18.1502 131.461 18.7596 131.461 19.4315C131.461 20.1033 131.438 20.8221 131.391 21.5877C131.344 22.3377 131.25 23.0877 131.109 23.8377C130.969 24.5721 130.773 25.2752 130.523 25.9471C130.273 26.6346 129.938 27.2361 129.516 27.7518C129.094 28.283 128.586 28.6971 127.992 28.994C127.398 29.3065 126.695 29.4627 125.883 29.4627C125.227 29.4627 124.648 29.283 124.148 28.9236C123.648 28.5643 123.242 28.1502 122.93 27.6815C122.633 27.2283 122.43 26.7908 122.32 26.369C122.227 25.9471 122.25 25.6658 122.391 25.5252L123.562 24.4705C123.719 25.2361 123.938 25.8221 124.219 26.2283C124.516 26.6346 124.812 26.9315 125.109 27.119C125.453 27.3377 125.812 27.4627 126.188 27.494C126.797 27.494 127.289 27.3377 127.664 27.0252C128.055 26.7283 128.367 26.3065 128.602 25.7596C128.836 25.2127 129.008 24.5643 129.117 23.8143C129.227 23.0486 129.305 22.2205 129.352 21.3299C129.055 22.033 128.648 22.6346 128.133 23.1346C127.633 23.619 126.984 23.8611 126.188 23.8611ZM145.594 26.6736C145.438 26.8924 145.258 27.0565 145.055 27.1658C144.852 27.2908 144.656 27.3768 144.469 27.4236C144.25 27.4861 144.016 27.5096 143.766 27.494C143.672 27.494 143.57 27.4705 143.461 27.4236C143.367 27.3924 143.266 27.3455 143.156 27.283C143.047 27.2361 142.953 27.158 142.875 27.0486C142.656 26.2674 142.461 25.5096 142.289 24.7752C142.117 24.0408 141.969 23.3846 141.844 22.8065C141.688 22.1346 141.555 21.5018 141.445 20.908C141.023 20.8924 140.391 20.8924 139.547 20.908C138.719 20.908 137.82 20.9549 136.852 21.0486C136.555 21.9861 136.32 22.7752 136.148 23.4158C135.977 24.0565 135.852 24.5877 135.773 25.0096C135.695 25.4315 135.664 25.7752 135.68 26.0408C135.695 26.3221 135.742 26.5643 135.82 26.7674C135.602 26.9861 135.383 27.1424 135.164 27.2361C134.961 27.3455 134.773 27.4158 134.602 27.4471C134.398 27.494 134.203 27.5096 134.016 27.494C133.766 27.4627 133.562 27.4158 133.406 27.3533C133.25 27.3065 133.133 27.2205 133.055 27.0955C132.992 26.9861 132.969 26.8221 132.984 26.6033C133.016 26.3846 133.078 26.0955 133.172 25.7361C133.266 25.4236 133.438 24.869 133.688 24.0721C133.953 23.2596 134.25 22.3377 134.578 21.3065C133.984 21.3533 133.523 21.3221 133.195 21.2127C132.883 21.1033 132.664 20.8065 132.539 20.3221C132.789 20.244 133.055 20.1736 133.336 20.1111C133.633 20.033 133.914 19.9627 134.18 19.9002C134.477 19.8377 134.781 19.783 135.094 19.7361C135.422 18.7049 135.758 17.6893 136.102 16.6893C136.445 15.6893 136.766 14.7908 137.062 13.994L138.422 10.3611C138.453 10.2674 138.617 10.1658 138.914 10.0565C139.211 9.94708 139.539 9.86115 139.898 9.79865C140.258 9.72052 140.602 9.68146 140.93 9.68146C141.258 9.68146 141.469 9.75177 141.562 9.8924C141.609 10.2205 141.672 10.6268 141.75 11.1111C141.844 11.5955 141.93 12.0643 142.008 12.5174C142.102 13.0486 142.211 13.5955 142.336 14.158C142.477 14.9393 142.625 15.8065 142.781 16.7596C142.953 17.7127 143.164 18.7283 143.414 19.8065C143.664 20.8846 143.961 22.0018 144.305 23.158C144.648 24.3143 145.078 25.4861 145.594 26.6736ZM139.078 19.3377C139.578 19.3221 139.992 19.3143 140.32 19.3143C140.648 19.3143 140.93 19.3221 141.164 19.3377L141.094 18.9861C141 18.408 140.898 17.7908 140.789 17.1346C140.695 16.4783 140.594 15.8299 140.484 15.1893C140.391 14.5486 140.297 13.9393 140.203 13.3611C140.109 12.783 140.031 12.2752 139.969 11.8377C139.812 12.244 139.633 12.7361 139.43 13.3143C139.227 13.8768 139.008 14.494 138.773 15.1658C138.539 15.8377 138.297 16.5408 138.047 17.2752C137.812 18.0096 137.578 18.7361 137.344 19.4549C137.625 19.4236 137.906 19.4002 138.188 19.3846C138.469 19.369 138.766 19.3533 139.078 19.3377ZM147.258 14.6502C147.039 14.5877 146.812 14.494 146.578 14.369C146.359 14.2283 146.156 14.0721 145.969 13.9002C145.797 13.7127 145.664 13.5096 145.57 13.2908C145.477 13.0721 145.453 12.8377 145.5 12.5877C145.594 12.0721 145.891 11.5877 146.391 11.1346C146.891 10.6815 147.562 10.3221 148.406 10.0565V9.98615C148.422 9.81427 148.531 9.6424 148.734 9.47052C148.953 9.28302 149.219 9.15802 149.531 9.09552C149.828 9.03302 150.039 9.03302 150.164 9.09552C150.305 9.15802 150.375 9.24396 150.375 9.35333C150.375 9.38458 150.367 9.42365 150.352 9.47052C150.352 9.50177 150.352 9.53302 150.352 9.56427V9.68146C151.117 9.61896 151.969 9.6424 152.906 9.75177C154.031 9.8924 154.945 10.158 155.648 10.5486C156.352 10.9393 156.883 11.3924 157.242 11.908C157.602 12.408 157.82 12.9315 157.898 13.4783C157.992 14.0252 157.992 14.5252 157.898 14.9783C157.805 15.5096 157.633 15.994 157.383 16.4315C157.133 16.8533 156.836 17.2361 156.492 17.5799C156.148 17.908 155.766 18.1971 155.344 18.4471C154.922 18.6971 154.477 18.908 154.008 19.0799C154.508 19.1893 154.93 19.369 155.273 19.619C155.633 19.8533 155.922 20.1346 156.141 20.4627C156.359 20.7908 156.516 21.158 156.609 21.5643C156.703 21.9705 156.734 22.3846 156.703 22.8065C156.672 23.4627 156.5 24.0799 156.188 24.658C155.891 25.2205 155.484 25.7127 154.969 26.1346C154.453 26.5565 153.836 26.8846 153.117 27.119C152.414 27.3533 151.633 27.4549 150.773 27.4236H150.492C150.258 27.6268 150 27.7752 149.719 27.869C149.453 27.9783 149.195 28.0565 148.945 28.1033C148.664 28.1658 148.383 28.1893 148.102 28.1736C148.102 28.0643 148.102 27.9471 148.102 27.8221C148.117 27.7127 148.125 27.6033 148.125 27.494C148.125 27.369 148.133 27.244 148.148 27.119C147.961 27.0877 147.781 27.0408 147.609 26.9783C147.453 26.9315 147.289 26.8768 147.117 26.8143C146.961 26.7674 146.82 26.7127 146.695 26.6502C146.633 26.5565 146.586 26.4393 146.555 26.2986C146.523 26.1736 146.5 26.033 146.484 25.8768C146.484 25.7361 146.516 25.5721 146.578 25.3846C147.062 25.5721 147.617 25.7127 148.242 25.8065C148.273 25.0096 148.297 24.0643 148.312 22.9705C148.344 21.8768 148.359 20.7283 148.359 19.5252C148.359 18.1658 148.359 16.8299 148.359 15.5174C148.375 14.2049 148.383 13.0799 148.383 12.1424C147.93 12.3768 147.578 12.6971 147.328 13.1033C147.078 13.5096 147.055 14.0252 147.258 14.6502ZM154.477 22.9236C154.539 22.2361 154.438 21.6893 154.172 21.283C153.906 20.8611 153.555 20.5486 153.117 20.3455C152.695 20.1268 152.227 19.994 151.711 19.9471C151.211 19.9002 150.758 19.8924 150.352 19.9236C150.383 21.2205 150.406 22.4002 150.422 23.4627C150.438 24.5096 150.453 25.369 150.469 26.0408C150.953 26.0565 151.422 26.0018 151.875 25.8768C152.328 25.7518 152.734 25.5565 153.094 25.2908C153.469 25.0252 153.781 24.6971 154.031 24.3065C154.281 23.9002 154.43 23.4393 154.477 22.9236ZM150.305 11.6033C150.273 12.4002 150.258 13.3455 150.258 14.4393C150.258 15.533 150.273 16.7518 150.305 18.0955C150.305 18.2205 150.305 18.3455 150.305 18.4705C150.305 18.5799 150.312 18.6971 150.328 18.8221C150.891 18.7752 151.477 18.6424 152.086 18.4236C152.695 18.1893 153.25 17.8846 153.75 17.5096C154.266 17.1346 154.688 16.6971 155.016 16.1971C155.344 15.6815 155.508 15.119 155.508 14.5096C155.508 14.0408 155.383 13.6268 155.133 13.2674C154.883 12.8924 154.547 12.5799 154.125 12.3299C153.719 12.0799 153.242 11.8924 152.695 11.7674C152.164 11.6424 151.609 11.5799 151.031 11.5799C150.906 11.5799 150.781 11.5799 150.656 11.5799C150.547 11.5799 150.43 11.5877 150.305 11.6033Z" fill="white"/>
</svg>
