<svg width="67" height="57" viewBox="0 0 67 57" fill="none" xmlns="http://www.w3.org/2000/svg">
<path d="M37.768 51.548C51.1311 51.548 61.964 40.7151 61.964 27.352C61.964 13.9889 51.1311 3.156 37.768 3.156C24.4049 3.156 13.572 13.9889 13.572 27.352C13.572 40.7151 24.4049 51.548 37.768 51.548Z" fill="#EDEBDC"/>
<path d="M30.95 53.672L32.2282 54.9502" stroke="#4C241D" stroke-width="2.104" stroke-linecap="round" stroke-linejoin="round"/>
<path d="M26.4758 49.1978L27.754 50.476" stroke="#4C241D" stroke-width="2.104" stroke-linecap="round" stroke-linejoin="round"/>
<path d="M30.95 50.476L32.2282 49.1978" stroke="#4C241D" stroke-width="2.104" stroke-linecap="round" stroke-linejoin="round"/>
<path d="M26.4758 54.9502L27.754 53.672" stroke="#4C241D" stroke-width="2.104" stroke-linecap="round" stroke-linejoin="round"/>
<path d="M47.236 5.26C48.398 5.26 49.34 4.31801 49.34 3.156C49.34 1.99399 48.398 1.052 47.236 1.052C46.074 1.052 45.132 1.99399 45.132 3.156C45.132 4.31801 46.074 5.26 47.236 5.26Z" stroke="#4C241D" stroke-width="2.104" stroke-linecap="round" stroke-linejoin="round"/>
<path d="M16.8721 3.88924V5.37782" stroke="#4C241D" stroke-width="2.104" stroke-linecap="round" stroke-linejoin="round"/>
<path d="M16.8721 9.84251V11.3311" stroke="#4C241D" stroke-width="2.104" stroke-linecap="round" stroke-linejoin="round"/>
<path d="M13.1512 7.61017H14.6387" stroke="#4C241D" stroke-width="2.104" stroke-linecap="round" stroke-linejoin="round"/>
<path d="M19.1045 7.61017H20.593" stroke="#4C241D" stroke-width="2.104" stroke-linecap="round" stroke-linejoin="round"/>
<path d="M10.942 3.156C11.8135 3.156 12.52 2.44951 12.52 1.578C12.52 0.706495 11.8135 0 10.942 0C10.0705 0 9.36401 0.706495 9.36401 1.578C9.36401 2.44951 10.0705 3.156 10.942 3.156Z" fill="#4C241D"/>
<path d="M9.89001 55.756C10.7615 55.756 11.468 55.0495 11.468 54.178C11.468 53.3065 10.7615 52.6 9.89001 52.6C9.01851 52.6 8.31201 53.3065 8.31201 54.178C8.31201 55.0495 9.01851 55.756 9.89001 55.756Z" fill="#4C241D"/>
<path d="M40.1908 42.08H2V16.832H58.808V42.08H49.34" fill="#A9BA5A"/>
<path d="M40.1908 42.08H2V16.832H58.808V42.08H49.34" stroke="#4C241D" stroke-width="2.104" stroke-linecap="round" stroke-linejoin="round"/>
<path d="M30.404 38.924C35.633 38.924 39.872 34.685 39.872 29.456C39.872 24.227 35.633 19.988 30.404 19.988C25.175 19.988 20.936 24.227 20.936 29.456C20.936 34.685 25.175 38.924 30.404 38.924Z" fill="#FFEC95"/>
<path d="M17.78 19.988H10.416C10.416 21.383 9.86183 22.7209 8.87539 23.7074C7.88895 24.6938 6.55104 25.248 5.15601 25.248V32.612" stroke="#4C241D" stroke-width="2.104" stroke-linecap="round" stroke-linejoin="round"/>
<path d="M6.20801 22.092C6.78901 22.092 7.26001 21.621 7.26001 21.04C7.26001 20.459 6.78901 19.988 6.20801 19.988C5.627 19.988 5.15601 20.459 5.15601 21.04C5.15601 21.621 5.627 22.092 6.20801 22.092Z" fill="#4C241D"/>
<path d="M54.6 55.756C60.4101 55.756 65.12 51.046 65.12 45.236C65.12 39.426 60.4101 34.716 54.6 34.716C48.79 34.716 44.08 39.426 44.08 45.236C44.08 51.046 48.79 55.756 54.6 55.756Z" fill="#FFCE56" stroke="#4C241D" stroke-width="2.104" stroke-linecap="round" stroke-linejoin="round"/>
<path d="M54.6 52.6C58.667 52.6 61.964 49.303 61.964 45.236C61.964 41.169 58.667 37.872 54.6 37.872C50.533 37.872 47.236 41.169 47.236 45.236C47.236 49.303 50.533 52.6 54.6 52.6Z" stroke="#FFEC95" stroke-width="2.104" stroke-linecap="round" stroke-linejoin="round"/>
<path d="M28.3 34.716V24.196H31.982C32.6795 24.196 33.3485 24.4731 33.8417 24.9663C34.3349 25.4595 34.612 26.1285 34.612 26.826C34.612 27.5235 34.3349 28.1925 33.8417 28.6857C33.3485 29.1789 32.6795 29.456 31.982 29.456H26.196" stroke="#4C241D" stroke-width="2.104" stroke-linecap="round" stroke-linejoin="round"/>
<path d="M26.196 32.612H32.508" stroke="#4C241D" stroke-width="2.104" stroke-linecap="round" stroke-linejoin="round"/>
</svg>
