<svg width="4182" height="4100" viewBox="0 0 4182 4100" fill="none" xmlns="http://www.w3.org/2000/svg">
<path d="M359.293 71V212.351" stroke="black" stroke-width="141.351" stroke-linecap="round" stroke-linejoin="round"/>
<path d="M359.293 495.054V636.405" stroke="black" stroke-width="141.351" stroke-linecap="round" stroke-linejoin="round"/>
<path d="M76.5908 353.703H217.942" stroke="black" stroke-width="141.351" stroke-linecap="round" stroke-linejoin="round"/>
<path d="M500.645 353.703H641.996" stroke="black" stroke-width="141.351" stroke-linecap="round" stroke-linejoin="round"/>
<path d="M3787.06 1908.57C3884.65 1908.57 3963.75 1829.46 3963.75 1731.88C3963.75 1634.3 3884.65 1555.19 3787.06 1555.19C3689.48 1555.19 3610.37 1634.3 3610.37 1731.88C3610.37 1829.46 3689.48 1908.57 3787.06 1908.57Z" stroke="black" stroke-width="141.351" stroke-linecap="round" stroke-linejoin="round"/>
<path d="M299.268 1809.62C299.268 1824.56 294.837 1839.17 286.535 1851.6C278.233 1864.02 266.433 1873.7 252.628 1879.42C238.823 1885.14 223.632 1886.64 208.976 1883.72C194.32 1880.81 180.858 1873.61 170.292 1863.05C159.726 1852.48 152.53 1839.02 149.615 1824.36C146.7 1809.71 148.196 1794.51 153.914 1780.71C159.633 1766.9 169.316 1755.1 181.741 1746.8C194.165 1738.5 208.773 1734.07 223.715 1734.07C243.753 1734.07 262.97 1742.03 277.139 1756.2C291.308 1770.37 299.268 1789.58 299.268 1809.62Z" fill="black"/>
<path d="M3762.38 466.784C3762.38 481.727 3757.95 496.334 3749.64 508.759C3741.34 521.183 3729.54 530.867 3715.74 536.585C3701.93 542.304 3686.74 543.8 3672.08 540.885C3657.43 537.97 3643.97 530.774 3633.4 520.208C3622.83 509.642 3615.64 496.179 3612.72 481.524C3609.81 466.868 3611.3 451.677 3617.02 437.872C3622.74 424.066 3632.42 412.267 3644.85 403.965C3657.27 395.663 3671.88 391.232 3686.82 391.232C3706.86 391.232 3726.08 399.192 3740.25 413.361C3754.42 427.529 3762.38 446.747 3762.38 466.784Z" fill="black"/>
<path d="M897.194 2841.83C1198.48 3586.12 2984.95 3585.77 3284.9 2840.84" stroke="black" stroke-width="141.351" stroke-linecap="round" stroke-linejoin="round"/>
<path d="M71 3350.85C421.41 3271.9 715.491 3097.4 816.487 2827.35" stroke="black" stroke-width="141.351" stroke-linecap="round" stroke-linejoin="round"/>
<path d="M4110.67 3350.85C3760.19 3271.9 3466.18 3097.4 3365.18 2827.35" stroke="black" stroke-width="141.351" stroke-linecap="round" stroke-linejoin="round"/>
<path d="M854.023 2827.35C971.122 2827.35 1066.05 2732.42 1066.05 2615.32C1066.05 2498.23 971.122 2403.3 854.023 2403.3C736.924 2403.3 641.996 2498.23 641.996 2615.32C641.996 2732.42 736.924 2827.35 854.023 2827.35Z" stroke="black" stroke-width="141.351" stroke-linecap="round" stroke-linejoin="round"/>
<path d="M854.023 2898.03V4028.84" stroke="black" stroke-width="141.351" stroke-linecap="round" stroke-linejoin="round"/>
<path d="M3327.67 2827.35C3444.77 2827.35 3539.7 2732.42 3539.7 2615.32C3539.7 2498.23 3444.77 2403.3 3327.67 2403.3C3210.57 2403.3 3115.64 2498.23 3115.64 2615.32C3115.64 2732.42 3210.57 2827.35 3327.67 2827.35Z" stroke="black" stroke-width="141.351" stroke-linecap="round" stroke-linejoin="round"/>
<path d="M3327.67 2898.03V4028.84" stroke="black" stroke-width="141.351" stroke-linecap="round" stroke-linejoin="round"/>
<path d="M1136.73 212.351H2974.29V2049.92H1136.73V212.351Z" stroke="black" stroke-width="141.351" stroke-linecap="round" stroke-linejoin="round"/>
<path d="M1419.43 495.054H2691.59V1767.22H1419.43V495.054Z" stroke="black" stroke-width="141.351" stroke-linecap="round" stroke-linejoin="round"/>
<path d="M2338.21 1767.22H1772.81V1484.51C1772.81 1409.54 1802.59 1337.63 1855.61 1284.61C1908.63 1231.6 1980.53 1201.81 2055.51 1201.81C2130.49 1201.81 2202.39 1231.6 2255.41 1284.61C2308.43 1337.63 2338.21 1409.54 2338.21 1484.51V1767.22Z" stroke="black" stroke-width="141.351" stroke-linecap="round" stroke-linejoin="round"/>
<path d="M2691.59 495.054L2974.29 212.351" stroke="black" stroke-width="141.351" stroke-linecap="round" stroke-linejoin="round"/>
<path d="M2691.59 1767.22L2974.29 2049.92" stroke="black" stroke-width="141.351" stroke-linecap="round" stroke-linejoin="round"/>
<path d="M1136.73 212.351L1419.43 495.054" stroke="black" stroke-width="141.351" stroke-linecap="round" stroke-linejoin="round"/>
<path d="M1136.73 2049.92L1419.43 1767.22" stroke="black" stroke-width="141.351" stroke-linecap="round" stroke-linejoin="round"/>
<path d="M2055.51 1201.81C2018.02 1201.81 1982.07 1186.92 1955.56 1160.41C1929.05 1133.9 1914.16 1097.95 1914.16 1060.46V919.108C1914.16 881.619 1929.05 845.666 1955.56 819.158C1982.07 792.649 2018.02 777.757 2055.51 777.757C2093 777.757 2128.95 792.649 2155.46 819.158C2181.97 845.666 2196.86 881.619 2196.86 919.108V1060.46C2196.86 1097.95 2181.97 1133.9 2155.46 1160.41C2128.95 1186.92 2093 1201.81 2055.51 1201.81Z" stroke="black" stroke-width="141.351" stroke-linecap="round" stroke-linejoin="round"/>
<path d="M2196.86 1272.49L1843.48 1696.54" stroke="black" stroke-width="141.351" stroke-linecap="round" stroke-linejoin="round"/>
<path d="M2196.86 989.784H2691.59" stroke="black" stroke-width="141.351" stroke-linejoin="round"/>
<path d="M1419.43 989.784H1914.16" stroke="black" stroke-width="141.351" stroke-linejoin="round"/>
</svg>
