<svg width="67" height="62" viewBox="0 0 67 62" fill="none" xmlns="http://www.w3.org/2000/svg">
<path d="M34.1261 51.9256C46.4766 51.9256 56.4886 41.9136 56.4886 29.5631C56.4886 17.2126 46.4766 7.20058 34.1261 7.20058C21.7756 7.20058 11.7635 17.2126 11.7635 29.5631C11.7635 41.9136 21.7756 51.9256 34.1261 51.9256Z" fill="#FFE5D2"/>
<path d="M20.5005 27.4527L21.6446 35.0861C21.6735 35.2784 21.7601 35.4574 21.893 35.5993C22.0259 35.7413 22.1988 35.8395 22.3888 35.8809C22.5788 35.9223 22.7769 35.9049 22.9568 35.8312C23.1367 35.7574 23.29 35.6307 23.3962 35.4679L28.8787 27.0533" fill="#F4AEAB"/>
<path d="M20.5005 27.4527L21.6446 35.0861C21.6735 35.2784 21.7601 35.4574 21.893 35.5993C22.0259 35.7413 22.1988 35.8395 22.3888 35.8809C22.5788 35.9223 22.7769 35.9049 22.9568 35.8312C23.1367 35.7574 23.29 35.6307 23.3962 35.4679L28.8787 27.0533" stroke="#4C241D" stroke-width="2.08024" stroke-linecap="round" stroke-linejoin="round"/>
<path d="M18.9684 12.345L18.4276 4.64814C18.4141 4.45398 18.4599 4.26031 18.559 4.0928C18.6581 3.92529 18.8058 3.79186 18.9824 3.71018C19.1591 3.62851 19.3564 3.60246 19.5482 3.63548C19.74 3.6685 19.9172 3.75904 20.0564 3.8951L27.2332 10.9211" fill="#F4AEAB"/>
<path d="M18.9684 12.345L18.4276 4.64814C18.4141 4.45398 18.4599 4.26031 18.559 4.0928C18.6581 3.92529 18.8058 3.79186 18.9824 3.71018C19.1591 3.62851 19.3564 3.60246 19.5482 3.63548C19.74 3.6685 19.9172 3.75904 20.0564 3.8951L27.2332 10.9211" stroke="#4C241D" stroke-width="2.08024" stroke-linecap="round" stroke-linejoin="round"/>
<path d="M44.029 19.8734C44.6146 14.471 40.3636 10.5061 32.7957 10.3553L28.3857 18.1249L33.2201 26.4459C41.3237 25.4755 43.6098 23.7385 44.029 19.8734Z" fill="#F4AEAB" stroke="#4C241D" stroke-width="2.08024" stroke-linecap="round" stroke-linejoin="round"/>
<path d="M8.37068 41.3341C8.37068 41.3341 6.05642 28.0113 22.8096 27.2135C27.0553 27.0055 30.4732 26.7714 33.2232 26.4428L28.3888 18.1218L32.7989 10.3521C30.9188 10.3274 29.0412 10.4964 27.1958 10.8566C16.1872 12.9306 3.9585 18.2279 2.23294 31.6787C1.19075 39.7386 3.98346 44.1248 3.98346 44.1248C3.98346 44.1248 2.63131 53.6179 6.69609 52.2616C10.7609 50.9053 10.5248 48.5973 10.5248 48.5973C10.5248 48.5973 14.5136 50.9895 16.5876 48.4371C18.6616 45.8846 16.986 43.2479 8.37068 41.3341Z" fill="#FC8C29" stroke="#4C241D" stroke-width="2.08024" stroke-linecap="round" stroke-linejoin="round"/>
<path d="M28.3888 18.1218C28.3888 18.1218 21.42 17.7547 13.0772 23.5408C3.10872 30.4535 8.37067 41.3268 8.37067 41.3268" stroke="#4C241D" stroke-width="2.08024" stroke-linecap="round" stroke-linejoin="round"/>
<path d="M35.601 14.8871C36.1754 14.8871 36.6411 14.4214 36.6411 13.8469C36.6411 13.2725 36.1754 12.8068 35.601 12.8068C35.0265 12.8068 34.5609 13.2725 34.5609 13.8469C34.5609 14.4214 35.0265 14.8871 35.601 14.8871Z" fill="#4C241D"/>
<path d="M35.6259 23.2725C36.2003 23.2725 36.666 22.8068 36.666 22.2324C36.666 21.6579 36.2003 21.1922 35.6259 21.1922C35.0515 21.1922 34.5858 21.6579 34.5858 22.2324C34.5858 22.8068 35.0515 23.2725 35.6259 23.2725Z" fill="#4C241D"/>
<path d="M47.4729 36.5777L45.4425 29.1315C45.3913 28.9438 45.2843 28.7761 45.1355 28.6507C44.9867 28.5252 44.8034 28.448 44.6097 28.4293C44.416 28.4106 44.2213 28.4512 44.0512 28.5458C43.8812 28.6403 43.7439 28.7844 43.6577 28.9588L39.2018 37.9579" fill="#F4AEAB"/>
<path d="M47.4729 36.5777L45.4425 29.1315C45.3913 28.9438 45.2843 28.7761 45.1355 28.6507C44.9867 28.5252 44.8034 28.448 44.6097 28.4293C44.416 28.4106 44.2213 28.4512 44.0512 28.5458C43.8812 28.6403 43.7439 28.7844 43.6577 28.9588L39.2018 37.9579" stroke="#4C241D" stroke-width="2.08024" stroke-linecap="round" stroke-linejoin="round"/>
<path d="M50.768 51.4056L52.2085 58.9891C52.2443 59.18 52.2212 59.3773 52.1423 59.5548C52.0634 59.7324 51.9325 59.8818 51.7669 59.9833C51.6012 60.0847 51.4087 60.1335 51.2147 60.1232C51.0207 60.1128 50.8345 60.0437 50.6806 59.9252L42.7289 53.7885" fill="#F4AEAB"/>
<path d="M50.768 51.4056L52.2085 58.9891C52.2443 59.18 52.2212 59.3773 52.1423 59.5548C52.0634 59.7324 51.9325 59.8818 51.7669 59.9833C51.6012 60.0847 51.4087 60.1335 51.2147 60.1232C51.0207 60.1128 50.8345 60.0437 50.6806 59.9252L42.7289 53.7885" stroke="#4C241D" stroke-width="2.08024" stroke-linecap="round" stroke-linejoin="round"/>
<path d="M24.9938 46.8686C25.0458 52.3032 29.7336 55.7408 37.2672 55.0023L40.7339 46.7687L34.9571 39.0719C27.022 40.9878 24.9553 42.9858 24.9938 46.8686Z" fill="#F4AEAB" stroke="#4C241D" stroke-width="2.08024" stroke-linecap="round" stroke-linejoin="round"/>
<path d="M57.8844 21.3691C57.8844 21.3691 61.7464 34.3269 45.2043 37.0873C41.0116 37.7873 37.6448 38.426 34.9529 39.075L40.7298 46.7719L37.263 55.0054C39.1331 54.8091 40.9779 54.4209 42.7684 53.8467C53.4566 50.4934 64.9791 43.7971 65.1184 30.2361C65.2016 22.1128 61.9138 18.0844 61.9138 18.0844C61.9138 18.0844 62.1447 8.4945 58.2641 10.3209C54.3834 12.1474 54.892 14.4148 54.892 14.4148C54.892 14.4148 50.6504 12.5073 48.8905 15.2854C47.1306 18.0636 49.1037 20.4798 57.8844 21.3691Z" fill="#8690C3" stroke="#4C241D" stroke-width="2.08024" stroke-linecap="round" stroke-linejoin="round"/>
<path d="M40.7298 46.7687C40.7298 46.7687 47.6923 46.3142 55.2997 39.5919C64.3872 31.5581 57.8844 21.3732 57.8844 21.3732" stroke="#4C241D" stroke-width="2.08024" stroke-linecap="round" stroke-linejoin="round"/>
<path d="M34.0699 52.9044C34.6443 52.9044 35.11 52.4387 35.11 51.8643C35.11 51.2898 34.6443 50.8242 34.0699 50.8242C33.4955 50.8242 33.0298 51.2898 33.0298 51.8643C33.0298 52.4387 33.4955 52.9044 34.0699 52.9044Z" fill="#4C241D"/>
<path d="M33.061 44.5793C33.6354 44.5793 34.1011 44.1136 34.1011 43.5392C34.1011 42.9647 33.6354 42.4991 33.061 42.4991C32.4865 42.4991 32.0208 42.9647 32.0208 43.5392C32.0208 44.1136 32.4865 44.5793 33.061 44.5793Z" fill="#4C241D"/>
<path d="M46.6075 7.20059C48.0436 7.20059 49.2078 6.0364 49.2078 4.60029C49.2078 3.16419 48.0436 2 46.6075 2C45.1714 2 44.0072 3.16419 44.0072 4.60029C44.0072 6.0364 45.1714 7.20059 46.6075 7.20059Z" stroke="#4C241D" stroke-width="2.08024" stroke-linecap="round" stroke-linejoin="round"/>
<path d="M21.0404 56.6956L17.1961 60.5389" stroke="#4C241D" stroke-width="2.08024" stroke-linecap="round" stroke-linejoin="round"/>
<path d="M17.1961 56.6956L21.0404 60.5389" stroke="#4C241D" stroke-width="2.08024" stroke-linecap="round" stroke-linejoin="round"/>
<path d="M55.9685 55.7033C56.6188 55.7033 57.1459 55.1762 57.1459 54.5259C57.1459 53.8757 56.6188 53.3485 55.9685 53.3485C55.3183 53.3485 54.7911 53.8757 54.7911 54.5259C54.7911 55.1762 55.3183 55.7033 55.9685 55.7033Z" fill="#4C241D"/>
</svg>
